<?xml version="1.0" encoding="UTF-8"?>
<svg width="140px" height="146px" viewBox="0 0 140 146" version="1.1" xmlns="http://www.w3.org/2000/svg" xmlns:xlink="http://www.w3.org/1999/xlink">
    <!-- Generator: Sketch 58 (84663) - https://sketch.com -->
    <title>Group</title>
    <desc>Created with Sketch.</desc>
    <defs>
        <polygon id="path-1" points="-5.68434189e-14 0 88.7128713 0 88.7128713 64.4822128 -5.68434189e-14 64.4822128"></polygon>
        <linearGradient x1="0%" y1="1.12218001%" x2="100%" y2="98.87782%" id="linearGradient-3">
            <stop stop-color="#E6007E" offset="0%"></stop>
            <stop stop-color="#942584" offset="51.6971073%"></stop>
            <stop stop-color="#36A9E1" offset="100%"></stop>
        </linearGradient>
        <polygon id="path-4" points="0.222464292 0.0929914837 34.3138394 0.0929914837 34.3138394 8.63546084 0.222464292 8.63546084"></polygon>
        <polygon id="path-6" points="0.000208592866 0.270372388 88.6926439 0.270372388 88.6926439 9.07614347 0.000208592866 9.07614347"></polygon>
    </defs>
    <g id="Fiber_360px" stroke="none" stroke-width="1" fill="none" fill-rule="evenodd">
        <g id="01_Start" transform="translate(-25.000000, 0.000000)">
            <g id="Group" transform="translate(25.000000, 0.000000)">
                <rect id="Background" fill="#333163" x="0" y="0" width="140" height="146"></rect>
                <g id="Logo" transform="translate(16.633663, 65.868927)">
                    <mask id="mask-2" fill="white">
                        <use xlink:href="#path-1"></use>
                    </mask>
                    <g id="Clip-2"></g>
                    <path d="M0,25.6891627 L0,25.6923091 C3.90786261,23.7310641 7.75919573,22.7777103 11.7612742,22.7777103 C13.5534683,22.7777103 15.4158009,22.9717372 17.2969767,23.359791 L17.2791803,23.4866951 C16.6353723,23.4394994 16.0030795,23.4174747 15.3802083,23.4174747 C9.62257517,23.4174747 4.61343437,25.4164763 0.0921221295,29.4795046 L0.0921221295,30.7097401 C6.05179581,25.0473007 13.1158882,24.1967287 16.8122886,24.1967287 C21.0132671,24.1967287 24.4772686,25.2308397 25.6151862,26.2156574 C26.1982774,26.7138346 35.2398551,35.3831666 51.7674026,51.2881292 L52.4698338,51.9666989 L52.4876301,50.7312195 L34.802275,33.7176816 L34.888116,33.6232901 C39.4146625,37.3590947 46.1709832,42.7677259 52.468787,46.6451177 L52.4991454,45.4935417 C46.2662459,41.6979559 39.6868415,36.4193752 35.2785882,32.7769133 L35.3539609,32.6730826 C40.5588612,36.0134919 47.7674179,40.3114501 52.468787,41.8835924 L52.5117075,40.8599694 C47.7852142,39.2899246 40.8069629,35.1104801 35.7831663,31.8801943 L35.84493,31.7690221 C42.2568396,34.7759148 48.1840611,36.5179618 52.468787,36.741355 L52.5295038,35.7743668 C48.2416375,35.6128525 42.3908354,33.8739519 36.0522048,30.8775471 L36.0993127,30.7590334 C39.922381,32.0133912 43.4512867,32.6489604 46.5865796,32.6489604 C48.7169039,32.6489604 50.7111386,32.3563468 52.468787,31.8382425 L52.5525344,30.8188147 C50.7498718,31.4376032 48.743075,31.7532902 46.5813454,31.7532902 C43.4533804,31.7532902 39.9108658,31.0946475 36.0522048,29.798338 L36.0825632,29.6745803 C37.6821384,29.951462 39.2701982,30.0920004 40.8069629,30.0920004 C44.7891513,30.0920004 48.6153602,29.1764031 52.468787,27.353599 L52.5598623,26.2712435 C48.649906,28.2335372 44.8006665,29.1879398 40.7964944,29.1879398 C39.0043003,29.1879398 37.1419677,28.9897178 35.2597451,28.6037615 L35.2754477,28.4768574 C35.9213495,28.5230044 36.5525954,28.5471267 37.1765135,28.5471267 C42.9341466,28.5471267 47.9432874,26.5470763 52.468787,22.4850967 L52.468787,21.2538125 C48.0668148,25.4343058 42.2631206,27.7322136 36.1055937,27.7343112 C32.7441828,27.7343112 29.4947841,27.0347656 26.9404887,25.754188 L26.6986681,25.5465267 C26.1365137,25.0745694 26.1365137,25.0745694 16.9577997,16.2374303 L0.0900284448,0 L0.0711852819,1.23443066 L17.7533999,18.2490174 L17.6686057,18.3444576 C10.4830796,12.4124782 4.86886391,8.28966858 0.0921221295,5.31843489 L0.0607168581,6.47001081 C6.28942903,10.2655967 12.8698802,15.5431286 17.2760398,19.1866393 L17.201714,19.2904699 C11.9968137,15.9479631 4.78616337,11.6510537 0.0921221295,10.0841553 L0.0481547495,11.1056807 C4.77150757,12.6767743 11.748712,16.8520236 16.7725086,20.0812607 L16.7107449,20.1955792 C10.2967417,17.1876377 4.37266063,15.4455907 0.0921221295,15.2221976 L0.0303584291,16.188137 C4.3150843,16.3517488 10.1648395,18.0916983 16.5024233,21.0870542 L16.4563622,21.2055679 C12.6364344,19.952259 9.1096224,19.315641 5.97118894,19.315641 C3.83981785,19.315641 1.84872365,19.6072057 0.0921221295,20.12531 L0.00628105429,21.1489331 C1.80789679,20.5269982 3.81678732,20.2113111 5.97956368,20.2113111 C9.10752872,20.2113111 12.645856,20.8668074 16.504517,22.1662633 L16.4720649,22.290021 C14.8745834,22.0131394 13.2854767,21.8736498 11.7528994,21.8736498 C7.77175784,21.8736498 3.94345525,22.7861007 0.0921221295,24.6099536 L0,25.6891627 Z" id="Fill-1" fill="url(#linearGradient-3)" mask="url(#mask-2)"></path>
                    <g id="Group-8" mask="url(#mask-2)">
                        <g transform="translate(-0.000000, 42.770946)" id="Group-7">
                            <g>
                                <g id="Group-3" transform="translate(0.000000, 0.297295)">
                                    <mask id="mask-5" fill="white">
                                        <use xlink:href="#path-4"></use>
                                    </mask>
                                    <g id="Clip-2"></g>
                                    <path d="M5.65839439,3.9305097 L5.65839439,5.6388364 L2.16342091,5.6388364 L2.16342091,8.63546084 L0.222464292,8.63546084 L0.222464292,0.0927825141 L6.21846624,0.0927825141 L6.21846624,1.87006919 L2.16342091,1.87006919 L2.16342091,3.9305097 L5.65839439,3.9305097 Z M30.4162817,4.56159797 C31.519738,4.56159797 32.1361299,4.07051935 32.1361299,3.20225055 C32.1361299,2.31935388 31.519738,1.80110921 30.4162817,1.80110921 L28.9342294,1.80110921 L28.9342294,4.56159797 L30.4162817,4.56159797 Z M34.3138394,8.63546084 L32.2320826,8.63546084 L30.3735202,6.15603622 L28.9342294,6.15603622 L28.9342294,8.63546084 L26.9901439,8.63546084 L26.9901439,0.0938273622 L30.3860358,0.0938273622 C32.7514789,0.0938273622 34.064571,1.21285971 34.064571,3.20225055 C34.064571,4.48950345 33.418976,5.39956617 32.3030042,5.84885087 L34.3138394,8.47977847 L34.3138394,8.63546084 Z M19.4276095,8.63546084 L19.4276095,0.0938273622 L25.5383375,0.0938273622 L25.5383375,1.87111403 L21.371695,1.87111403 L21.371695,3.55122983 L24.9490627,3.55122983 L24.9490627,5.25955652 L21.371695,5.25955652 L21.371695,6.88325052 L25.6488918,6.88325052 L25.6488918,8.63546084 L19.4276095,8.63546084 Z M13.1510502,6.96788322 L14.5496653,6.96788322 C15.6520786,6.96788322 16.225709,6.63248697 16.225709,6.00244355 C16.225709,5.38598315 15.6958831,5.03595902 14.7593012,5.03595902 L13.1510502,5.03595902 L13.1510502,6.96788322 Z M13.1510502,3.45196926 L14.7593012,3.45196926 C15.4434858,3.45196926 15.8345974,3.17194996 15.8345974,2.64012226 C15.8345974,2.05291761 15.3464901,1.75931528 14.4088651,1.75931528 L13.1510502,1.75931528 L13.1510502,3.45196926 Z M14.4088651,0.0927825141 C16.5458991,0.0927825141 17.6816872,0.918212538 17.6816872,2.47085686 C17.6816872,3.29837658 17.1894081,3.87304305 16.3654662,4.14052418 C17.6118086,4.44666468 18.2396731,5.17596867 18.2396731,6.21350287 C18.2396731,7.79540294 16.9390966,8.63546084 14.4923023,8.63546084 L11.2069646,8.63546084 L11.2069646,0.0927825141 L14.4088651,0.0927825141 Z M7.39075815,8.63546084 L9.3338007,8.63546084 L9.3338007,0.0938273622 L7.39075815,0.0938273622 L7.39075815,8.63546084 Z" id="Fill-1" fill="#FEFEFE" mask="url(#mask-5)"></path>
                                </g>
                                <g id="Group-6" transform="translate(0.000000, 12.118114)">
                                    <mask id="mask-7" fill="white">
                                        <use xlink:href="#path-6"></use>
                                    </mask>
                                    <g id="Clip-5"></g>
                                    <path d="M7.42089982,8.02628007 C6.55315349,8.71065559 5.37877566,9.07635244 3.93948488,9.07635244 C1.45201494,9.07635244 0.000208592866,7.49445237 0.000208592866,4.6817212 C0.000208592866,1.85227246 1.45201494,0.270372388 4.0792421,0.270372388 C5.11490568,0.270372388 6.30179909,0.534718965 7.0704638,0.995496991 L6.74923079,1.72480099 C5.99621054,1.37477686 4.98766403,1.16476239 4.1084451,1.16476239 C2.05380536,1.16476239 0.978509137,2.39768318 0.978509137,4.69530422 C0.978509137,6.90620287 2.08092244,8.17987274 3.98224641,8.17987274 C5.2254599,8.17987274 6.20376044,7.88522557 7.02978819,7.30011062 L7.42089982,8.02628007 Z M88.1067065,1.72480099 C87.156566,1.30581689 86.2637885,1.12401331 85.3230347,1.12401331 C84.2925859,1.12401331 83.676194,1.72480099 83.676194,2.37156198 C83.676194,3.39133376 84.3322186,3.60134823 86.0666683,4.17705955 C87.8125906,4.76321935 88.6928525,5.30863008 88.6928525,6.72335445 C88.6928525,8.39093207 87.4246078,9.07635244 85.9540281,9.07635244 C84.6941272,9.07635244 83.2871683,8.61557441 82.2921804,7.87164254 L82.683292,7.14547309 C83.7168696,7.81626559 84.935052,8.19450062 85.9133525,8.19450062 C87.0585274,8.19450062 87.7145519,7.71700502 87.7145519,6.84978107 C87.7145519,5.86971352 87.2118431,5.5217791 85.2980036,4.91681203 C83.7043541,4.41215038 82.6968505,4.02137718 82.6968505,2.45097044 C82.6968505,1.16476239 83.7168696,0.270372388 85.3407651,0.270372388 C86.3034212,0.270372388 87.4068774,0.49292504 88.4154239,0.954747914 L88.1067065,1.72480099 Z M79.7066718,8.95097066 L74.4636901,2.04974876 L74.4636901,8.95097066 L73.5166785,8.95097066 L73.5166785,0.410382038 L74.3802529,0.410382038 L79.6357502,7.33772515 L79.6357502,7.10158947 L79.6357502,0.410382038 L80.5879766,0.410382038 L80.5879766,8.95097066 L79.7066718,8.95097066 Z M70.7027607,4.69530422 C70.7027607,2.39768318 69.6274645,1.16476239 67.6969375,1.16476239 C65.782055,1.16476239 64.7067587,2.39768318 64.7067587,4.69530422 C64.7067587,6.96262467 65.782055,8.17882789 67.6969375,8.17882789 C69.6274645,8.17882789 70.7027607,6.96262467 70.7027607,4.69530422 L70.7027607,4.69530422 Z M71.6831472,4.69530422 C71.6831472,7.49549722 70.2282119,9.07530759 67.711539,9.07530759 C65.1802646,9.07530759 63.7263723,7.49549722 63.7263723,4.69530422 C63.7263723,1.85227246 65.1802646,0.271417236 67.711539,0.271417236 C70.2282119,0.271417236 71.6831472,1.85227246 71.6831472,4.69530422 L71.6831472,4.69530422 Z M60.8623922,8.95097066 L61.8125327,8.95097066 L61.8125327,0.410382038 L60.8623922,0.410382038 L60.8623922,8.95097066 Z M56.598754,1.30581689 L56.598754,8.95097066 L55.634012,8.95097066 L55.634012,1.30581689 L52.5603961,1.30581689 L52.5603961,0.410382038 L59.6890573,0.410382038 L59.6890573,1.30581689 L56.598754,1.30581689 Z M52.0691599,8.02628007 C51.2034995,8.71065559 50.0270358,9.07635244 48.587745,9.07635244 C46.0981891,9.07635244 44.6463828,7.49445237 44.6463828,4.6817212 C44.6463828,1.85227246 46.0981891,0.270372388 48.7285452,0.270372388 C49.7621228,0.270372388 50.9500592,0.534718965 51.7176809,0.995496991 L51.3964479,1.72480099 C50.6444706,1.37477686 49.6380101,1.16476239 48.7556622,1.16476239 C46.7031084,1.16476239 45.6236404,2.39768318 45.6236404,4.69530422 C45.6236404,6.90620287 46.7281396,8.17987274 48.6284206,8.17987274 C49.872677,8.17987274 50.8509776,7.88522557 51.6801342,7.30011062 L52.0691599,8.02628007 Z M37.6449632,8.95097066 L37.6449632,0.410382038 L43.2206505,0.410382038 L43.2206505,1.30686173 L38.5930178,1.30686173 L38.5930178,4.18959773 L42.6459772,4.18959773 L42.6459772,5.08607743 L38.5930178,5.08607743 L38.5930178,8.05344612 L43.3458063,8.05344612 L43.3458063,8.95097066 L37.6449632,8.95097066 Z M34.1625053,8.95097066 L28.9195236,2.04974876 L28.9195236,8.95097066 L27.972512,8.95097066 L27.972512,0.410382038 L28.8360865,0.410382038 L34.0915837,7.33772515 L34.0915837,7.10158947 L34.0915837,0.410382038 L35.0427672,0.410382038 L35.0427672,8.95097066 L34.1625053,8.95097066 Z M24.4890111,8.95097066 L19.2449865,2.04974876 L19.2449865,8.95097066 L18.2958889,8.95097066 L18.2958889,0.410382038 L19.1605063,0.410382038 L24.4170466,7.33772515 L24.4170466,7.10158947 L24.4170466,0.410382038 L25.369273,0.410382038 L25.369273,8.95097066 L24.4890111,8.95097066 Z M15.4840571,4.69530422 C15.4840571,2.39768318 14.4087608,1.16476239 12.4782339,1.16476239 C10.5643943,1.16476239 9.49014105,2.39768318 9.49014105,4.69530422 C9.49014105,6.96262467 10.5643943,8.17882789 12.4782339,8.17882789 C14.4087608,8.17882789 15.4840571,6.96262467 15.4840571,4.69530422 L15.4840571,4.69530422 Z M16.4644435,4.69530422 C16.4644435,7.49549722 15.0095083,9.07530759 12.4949213,9.07530759 C9.96468983,9.07530759 8.50975458,7.49549722 8.50975458,4.69530422 C8.50975458,1.85227246 9.96468983,0.271417236 12.4949213,0.271417236 C15.0095083,0.271417236 16.4644435,1.85227246 16.4644435,4.69530422 L16.4644435,4.69530422 Z" id="Fill-4" fill="#FEFEFE" mask="url(#mask-7)"></path>
                                </g>
                            </g>
                        </g>
                    </g>
                </g>
            </g>
        </g>
    </g>
</svg>